solid 
   facet normal 0.000000e+00 0.000000e+00 1.000000e+00
      outer loop
         vertex -9.000000e+00 2.100000e+01 1.500000e+00
         vertex -9.000000e+00 -2.100000e+01 1.500000e+00
         vertex -8.707107e+00 2.170711e+01 1.500000e+00
      endloop
   endfacet
   facet normal 0.000000e+00 -0.000000e+00 1.000000e+00
      outer loop
         vertex -9.000000e+00 -2.100000e+01 1.500000e+00
         vertex -8.866025e+00 -2.150000e+01 1.500000e+00
         vertex -8.707107e+00 2.170711e+01 1.500000e+00
      endloop
   endfacet
   facet normal 0.000000e+00 0.000000e+00 1.000000e+00
      outer loop
         vertex -8.707107e+00 2.170711e+01 1.500000e+00
         vertex -8.866025e+00 -2.150000e+01 1.500000e+00
         vertex -8.000000e+00 2.200000e+01 1.500000e+00
      endloop
   endfacet
   facet normal 0.000000e+00 -0.000000e+00 1.000000e+00
      outer loop
         vertex -8.866025e+00 -2.150000e+01 1.500000e+00
         vertex -8.500000e+00 -2.186603e+01 1.500000e+00
         vertex -8.000000e+00 2.200000e+01 1.500000e+00
      endloop
   endfacet
   facet normal 0.000000e+00 -0.000000e+00 1.000000e+00
      outer loop
         vertex -8.000000e+00 2.200000e+01 1.500000e+00
         vertex -3.100000e+00 2.013186e+01 1.500000e+00
         vertex 8.000000e+00 2.200000e+01 1.500000e+00
      endloop
   endfacet
   facet normal 0.000000e+00 -0.000000e+00 1.000000e+00
      outer loop
         vertex -3.100000e+00 2.013186e+01 1.500000e+00
         vertex 3.100000e+00 2.013186e+01 1.500000e+00
         vertex 8.000000e+00 2.200000e+01 1.500000e+00
      endloop
   endfacet
   facet normal 0.000000e+00 0.000000e+00 1.000000e+00
      outer loop
         vertex 8.000000e+00 2.200000e+01 1.500000e+00
         vertex 3.100000e+00 2.013186e+01 1.500000e+00
         vertex 8.500000e+00 2.186603e+01 1.500000e+00
      endloop
   endfacet
   facet normal 0.000000e+00 0.000000e+00 1.000000e+00
      outer loop
         vertex 3.100000e+00 2.013186e+01 1.500000e+00
         vertex 3.100000e+00 1.693186e+01 1.500000e+00
         vertex 8.500000e+00 2.186603e+01 1.500000e+00
      endloop
   endfacet
   facet normal 0.000000e+00 0.000000e+00 1.000000e+00
      outer loop
         vertex 8.500000e+00 2.186603e+01 1.500000e+00
         vertex 3.100000e+00 1.693186e+01 1.500000e+00
         vertex 8.866025e+00 2.150000e+01 1.500000e+00
      endloop
   endfacet
   facet normal 0.000000e+00 0.000000e+00 1.000000e+00
      outer loop
         vertex -3.100000e+00 2.013186e+01 1.500000e+00
         vertex -8.000000e+00 2.200000e+01 1.500000e+00
         vertex -3.100000e+00 1.693186e+01 1.500000e+00
      endloop
   endfacet
   facet normal 0.000000e+00 0.000000e+00 1.000000e+00
      outer loop
         vertex -8.000000e+00 2.200000e+01 1.500000e+00
         vertex -8.500000e+00 -2.186603e+01 1.500000e+00
         vertex -3.100000e+00 1.693186e+01 1.500000e+00
      endloop
   endfacet
   facet normal 0.000000e+00 -0.000000e+00 1.000000e+00
      outer loop
         vertex -8.500000e+00 -2.186603e+01 1.500000e+00
         vertex -8.000000e+00 -2.200000e+01 1.500000e+00
         vertex -3.100000e+00 1.693186e+01 1.500000e+00
      endloop
   endfacet
   facet normal 0.000000e+00 0.000000e+00 1.000000e+00
      outer loop
         vertex -3.100000e+00 1.693186e+01 1.500000e+00
         vertex -8.000000e+00 -2.200000e+01 1.500000e+00
         vertex 3.100000e+00 1.693186e+01 1.500000e+00
      endloop
   endfacet
   facet normal 0.000000e+00 0.000000e+00 1.000000e+00
      outer loop
         vertex -8.000000e+00 -2.200000e+01 1.500000e+00
         vertex 8.000000e+00 -2.200000e+01 1.500000e+00
         vertex 3.100000e+00 1.693186e+01 1.500000e+00
      endloop
   endfacet
   facet normal 0.000000e+00 -0.000000e+00 1.000000e+00
      outer loop
         vertex 3.100000e+00 1.693186e+01 1.500000e+00
         vertex 8.000000e+00 -2.200000e+01 1.500000e+00
         vertex 8.866025e+00 2.150000e+01 1.500000e+00
      endloop
   endfacet
   facet normal 0.000000e+00 -0.000000e+00 1.000000e+00
      outer loop
         vertex 8.000000e+00 -2.200000e+01 1.500000e+00
         vertex 8.707107e+00 -2.170711e+01 1.500000e+00
         vertex 8.866025e+00 2.150000e+01 1.500000e+00
      endloop
   endfacet
   facet normal 0.000000e+00 0.000000e+00 1.000000e+00
      outer loop
         vertex 8.866025e+00 2.150000e+01 1.500000e+00
         vertex 8.707107e+00 -2.170711e+01 1.500000e+00
         vertex 9.000000e+00 2.100000e+01 1.500000e+00
      endloop
   endfacet
   facet normal 0.000000e+00 -0.000000e+00 1.000000e+00
      outer loop
         vertex 8.707107e+00 -2.170711e+01 1.500000e+00
         vertex 9.000000e+00 -2.100000e+01 1.500000e+00
         vertex 9.000000e+00 2.100000e+01 1.500000e+00
      endloop
   endfacet
   facet normal 0.000000e+00 0.000000e+00 -1.000000e+00
      outer loop
         vertex -1.000000e+01 -2.200000e+01 0.000000e+00
         vertex -1.000000e+01 2.200000e+01 0.000000e+00
         vertex -9.866025e+00 -2.250000e+01 0.000000e+00
      endloop
   endfacet
   facet normal 0.000000e+00 0.000000e+00 -1.000000e+00
      outer loop
         vertex -1.000000e+01 2.200000e+01 0.000000e+00
         vertex -9.707107e+00 2.270711e+01 0.000000e+00
         vertex -9.866025e+00 -2.250000e+01 0.000000e+00
      endloop
   endfacet
   facet normal 0.000000e+00 -0.000000e+00 -1.000000e+00
      outer loop
         vertex -9.866025e+00 -2.250000e+01 0.000000e+00
         vertex -9.707107e+00 2.270711e+01 0.000000e+00
         vertex -9.500000e+00 -2.286603e+01 0.000000e+00
      endloop
   endfacet
   facet normal 0.000000e+00 0.000000e+00 -1.000000e+00
      outer loop
         vertex -9.707107e+00 2.270711e+01 0.000000e+00
         vertex -9.000000e+00 2.300000e+01 0.000000e+00
         vertex -9.500000e+00 -2.286603e+01 0.000000e+00
      endloop
   endfacet
   facet normal 0.000000e+00 -0.000000e+00 -1.000000e+00
      outer loop
         vertex -9.500000e+00 -2.286603e+01 0.000000e+00
         vertex -9.000000e+00 2.300000e+01 0.000000e+00
         vertex -9.000000e+00 -2.300000e+01 0.000000e+00
      endloop
   endfacet
   facet normal -0.000000e+00 0.000000e+00 -1.000000e+00
      outer loop
         vertex -9.000000e+00 2.300000e+01 0.000000e+00
         vertex -3.100000e+00 2.013186e+01 0.000000e+00
         vertex -9.000000e+00 -2.300000e+01 0.000000e+00
      endloop
   endfacet
   facet normal 0.000000e+00 -0.000000e+00 -1.000000e+00
      outer loop
         vertex -9.000000e+00 -2.300000e+01 0.000000e+00
         vertex -3.100000e+00 1.693186e+01 0.000000e+00
         vertex 9.000000e+00 -2.300000e+01 0.000000e+00
      endloop
   endfacet
   facet normal -0.000000e+00 -0.000000e+00 -1.000000e+00
      outer loop
         vertex -3.100000e+00 1.693186e+01 0.000000e+00
         vertex 3.100000e+00 1.693186e+01 0.000000e+00
         vertex 9.000000e+00 -2.300000e+01 0.000000e+00
      endloop
   endfacet
   facet normal 0.000000e+00 0.000000e+00 -1.000000e+00
      outer loop
         vertex 9.000000e+00 -2.300000e+01 0.000000e+00
         vertex 3.100000e+00 1.693186e+01 0.000000e+00
         vertex 9.707107e+00 -2.270711e+01 0.000000e+00
      endloop
   endfacet
   facet normal 0.000000e+00 0.000000e+00 -1.000000e+00
      outer loop
         vertex 3.100000e+00 1.693186e+01 0.000000e+00
         vertex 3.100000e+00 2.013186e+01 0.000000e+00
         vertex 9.707107e+00 -2.270711e+01 0.000000e+00
      endloop
   endfacet
   facet normal 0.000000e+00 0.000000e+00 -1.000000e+00
      outer loop
         vertex 9.707107e+00 -2.270711e+01 0.000000e+00
         vertex 3.100000e+00 2.013186e+01 0.000000e+00
         vertex 1.000000e+01 -2.200000e+01 0.000000e+00
      endloop
   endfacet
   facet normal 0.000000e+00 0.000000e+00 -1.000000e+00
      outer loop
         vertex -3.100000e+00 2.013186e+01 0.000000e+00
         vertex -9.000000e+00 2.300000e+01 0.000000e+00
         vertex 3.100000e+00 2.013186e+01 0.000000e+00
      endloop
   endfacet
   facet normal -0.000000e+00 0.000000e+00 -1.000000e+00
      outer loop
         vertex -9.000000e+00 2.300000e+01 0.000000e+00
         vertex 9.000000e+00 2.300000e+01 0.000000e+00
         vertex 3.100000e+00 2.013186e+01 0.000000e+00
      endloop
   endfacet
   facet normal -0.000000e+00 0.000000e+00 -1.000000e+00
      outer loop
         vertex 9.000000e+00 2.300000e+01 0.000000e+00
         vertex 9.500000e+00 2.286603e+01 0.000000e+00
         vertex 3.100000e+00 2.013186e+01 0.000000e+00
      endloop
   endfacet
   facet normal 0.000000e+00 -0.000000e+00 -1.000000e+00
      outer loop
         vertex 3.100000e+00 2.013186e+01 0.000000e+00
         vertex 9.500000e+00 2.286603e+01 0.000000e+00
         vertex 1.000000e+01 -2.200000e+01 0.000000e+00
      endloop
   endfacet
   facet normal -0.000000e+00 -0.000000e+00 -1.000000e+00
      outer loop
         vertex 9.500000e+00 2.286603e+01 0.000000e+00
         vertex 9.866025e+00 2.250000e+01 0.000000e+00
         vertex 1.000000e+01 -2.200000e+01 0.000000e+00
      endloop
   endfacet
   facet normal 0.000000e+00 0.000000e+00 -1.000000e+00
      outer loop
         vertex 1.000000e+01 -2.200000e+01 0.000000e+00
         vertex 9.866025e+00 2.250000e+01 0.000000e+00
         vertex 1.000000e+01 2.200000e+01 0.000000e+00
      endloop
   endfacet
   facet normal 0.000000e+00 0.000000e+00 -1.000000e+00
      outer loop
         vertex -3.100000e+00 1.693186e+01 0.000000e+00
         vertex -9.000000e+00 -2.300000e+01 0.000000e+00
         vertex -3.100000e+00 2.013186e+01 0.000000e+00
      endloop
   endfacet
   facet normal 0.000000e+00 1.000000e+00 -0.000000e+00
      outer loop
         vertex 3.100000e+00 1.693186e+01 1.500000e+00
         vertex 3.100000e+00 1.693186e+01 0.000000e+00
         vertex -3.100000e+00 1.693186e+01 0.000000e+00
      endloop
   endfacet
   facet normal 0.000000e+00 1.000000e+00 0.000000e+00
      outer loop
         vertex -3.100000e+00 1.693186e+01 1.500000e+00
         vertex 3.100000e+00 1.693186e+01 1.500000e+00
         vertex -3.100000e+00 1.693186e+01 0.000000e+00
      endloop
   endfacet
   facet normal 1.000000e+00 0.000000e+00 0.000000e+00
      outer loop
         vertex -3.100000e+00 1.693186e+01 1.500000e+00
         vertex -3.100000e+00 1.693186e+01 0.000000e+00
         vertex -3.100000e+00 2.013186e+01 0.000000e+00
      endloop
   endfacet
   facet normal 1.000000e+00 -0.000000e+00 0.000000e+00
      outer loop
         vertex -3.100000e+00 2.013186e+01 1.500000e+00
         vertex -3.100000e+00 1.693186e+01 1.500000e+00
         vertex -3.100000e+00 2.013186e+01 0.000000e+00
      endloop
   endfacet
   facet normal 0.000000e+00 -1.000000e+00 0.000000e+00
      outer loop
         vertex -3.100000e+00 2.013186e+01 1.500000e+00
         vertex -3.100000e+00 2.013186e+01 0.000000e+00
         vertex 3.100000e+00 2.013186e+01 0.000000e+00
      endloop
   endfacet
   facet normal 0.000000e+00 -1.000000e+00 0.000000e+00
      outer loop
         vertex 3.100000e+00 2.013186e+01 1.500000e+00
         vertex -3.100000e+00 2.013186e+01 1.500000e+00
         vertex 3.100000e+00 2.013186e+01 0.000000e+00
      endloop
   endfacet
   facet normal -1.000000e+00 0.000000e+00 0.000000e+00
      outer loop
         vertex 3.100000e+00 2.013186e+01 1.500000e+00
         vertex 3.100000e+00 2.013186e+01 0.000000e+00
         vertex 3.100000e+00 1.693186e+01 0.000000e+00
      endloop
   endfacet
   facet normal -1.000000e+00 -0.000000e+00 0.000000e+00
      outer loop
         vertex 3.100000e+00 1.693186e+01 1.500000e+00
         vertex 3.100000e+00 2.013186e+01 1.500000e+00
         vertex 3.100000e+00 1.693186e+01 0.000000e+00
      endloop
   endfacet
   facet normal -1.000000e+00 0.000000e+00 0.000000e+00
      outer loop
         vertex -9.000000e+00 2.100000e+01 1.000000e+00
         vertex -9.000000e+00 -2.100000e+01 1.000000e+00
         vertex -9.000000e+00 -2.100000e+01 1.500000e+00
      endloop
   endfacet
   facet normal -1.000000e+00 0.000000e+00 0.000000e+00
      outer loop
         vertex -9.000000e+00 2.100000e+01 1.000000e+00
         vertex -9.000000e+00 -2.100000e+01 1.500000e+00
         vertex -9.000000e+00 2.100000e+01 1.500000e+00
      endloop
   endfacet
   facet normal 0.000000e+00 -1.000000e+00 0.000000e+00
      outer loop
         vertex 8.000000e+00 -2.200000e+01 1.500000e+00
         vertex -8.000000e+00 -2.200000e+01 1.500000e+00
         vertex -8.000000e+00 -2.200000e+01 1.000000e+00
      endloop
   endfacet
   facet normal 0.000000e+00 -1.000000e+00 0.000000e+00
      outer loop
         vertex 8.000000e+00 -2.200000e+01 1.500000e+00
         vertex -8.000000e+00 -2.200000e+01 1.000000e+00
         vertex 8.000000e+00 -2.200000e+01 1.000000e+00
      endloop
   endfacet
   facet normal 1.000000e+00 -0.000000e+00 0.000000e+00
      outer loop
         vertex 9.000000e+00 2.100000e+01 1.500000e+00
         vertex 9.000000e+00 -2.100000e+01 1.500000e+00
         vertex 9.000000e+00 -2.100000e+01 1.000000e+00
      endloop
   endfacet
   facet normal 1.000000e+00 0.000000e+00 0.000000e+00
      outer loop
         vertex 9.000000e+00 2.100000e+01 1.500000e+00
         vertex 9.000000e+00 -2.100000e+01 1.000000e+00
         vertex 9.000000e+00 2.100000e+01 1.000000e+00
      endloop
   endfacet
   facet normal 0.000000e+00 1.000000e+00 0.000000e+00
      outer loop
         vertex -8.000000e+00 2.200000e+01 1.500000e+00
         vertex 8.000000e+00 2.200000e+01 1.500000e+00
         vertex 8.000000e+00 2.200000e+01 1.000000e+00
      endloop
   endfacet
   facet normal 0.000000e+00 1.000000e+00 0.000000e+00
      outer loop
         vertex -8.000000e+00 2.200000e+01 1.500000e+00
         vertex 8.000000e+00 2.200000e+01 1.000000e+00
         vertex -8.000000e+00 2.200000e+01 1.000000e+00
      endloop
   endfacet
   facet normal 0.000000e+00 1.000000e+00 0.000000e+00
      outer loop
         vertex 9.000000e+00 2.300000e+01 0.000000e+00
         vertex -9.000000e+00 2.300000e+01 0.000000e+00
         vertex -9.000000e+00 2.300000e+01 1.000000e+00
      endloop
   endfacet
   facet normal -0.000000e+00 1.000000e+00 0.000000e+00
      outer loop
         vertex 9.000000e+00 2.300000e+01 0.000000e+00
         vertex -9.000000e+00 2.300000e+01 1.000000e+00
         vertex 9.000000e+00 2.300000e+01 1.000000e+00
      endloop
   endfacet
   facet normal 1.000000e+00 0.000000e+00 -0.000000e+00
      outer loop
         vertex 1.000000e+01 -2.200000e+01 0.000000e+00
         vertex 1.000000e+01 2.200000e+01 0.000000e+00
         vertex 1.000000e+01 2.200000e+01 1.000000e+00
      endloop
   endfacet
   facet normal 1.000000e+00 0.000000e+00 0.000000e+00
      outer loop
         vertex 1.000000e+01 -2.200000e+01 0.000000e+00
         vertex 1.000000e+01 2.200000e+01 1.000000e+00
         vertex 1.000000e+01 -2.200000e+01 1.000000e+00
      endloop
   endfacet
   facet normal 0.000000e+00 -1.000000e+00 0.000000e+00
      outer loop
         vertex -9.000000e+00 -2.300000e+01 0.000000e+00
         vertex 9.000000e+00 -2.300000e+01 0.000000e+00
         vertex 9.000000e+00 -2.300000e+01 1.000000e+00
      endloop
   endfacet
   facet normal -0.000000e+00 -1.000000e+00 0.000000e+00
      outer loop
         vertex -9.000000e+00 -2.300000e+01 0.000000e+00
         vertex 9.000000e+00 -2.300000e+01 1.000000e+00
         vertex -9.000000e+00 -2.300000e+01 1.000000e+00
      endloop
   endfacet
   facet normal -1.000000e+00 -0.000000e+00 -0.000000e+00
      outer loop
         vertex -1.000000e+01 -2.200000e+01 1.000000e+00
         vertex -1.000000e+01 2.200000e+01 1.000000e+00
         vertex -1.000000e+01 2.200000e+01 0.000000e+00
      endloop
   endfacet
   facet normal -1.000000e+00 0.000000e+00 0.000000e+00
      outer loop
         vertex -1.000000e+01 -2.200000e+01 1.000000e+00
         vertex -1.000000e+01 2.200000e+01 0.000000e+00
         vertex -1.000000e+01 -2.200000e+01 0.000000e+00
      endloop
   endfacet
   facet normal -0.000000e+00 0.000000e+00 1.000000e+00
      outer loop
         vertex 9.000000e+00 2.300000e+01 1.000000e+00
         vertex -9.000000e+00 2.300000e+01 1.000000e+00
         vertex 9.500000e+00 2.286603e+01 1.000000e+00
      endloop
   endfacet
   facet normal 0.000000e+00 0.000000e+00 1.000000e+00
      outer loop
         vertex -9.000000e+00 2.300000e+01 1.000000e+00
         vertex -9.707107e+00 2.270711e+01 1.000000e+00
         vertex 9.500000e+00 2.286603e+01 1.000000e+00
      endloop
   endfacet
   facet normal -0.000000e+00 0.000000e+00 1.000000e+00
      outer loop
         vertex 9.500000e+00 2.286603e+01 1.000000e+00
         vertex -9.707107e+00 2.270711e+01 1.000000e+00
         vertex 9.866025e+00 2.250000e+01 1.000000e+00
      endloop
   endfacet
   facet normal 0.000000e+00 0.000000e+00 1.000000e+00
      outer loop
         vertex -9.707107e+00 2.270711e+01 1.000000e+00
         vertex -1.000000e+01 2.200000e+01 1.000000e+00
         vertex 9.866025e+00 2.250000e+01 1.000000e+00
      endloop
   endfacet
   facet normal 0.000000e+00 0.000000e+00 1.000000e+00
      outer loop
         vertex 9.866025e+00 2.250000e+01 1.000000e+00
         vertex 8.000000e+00 2.200000e+01 1.000000e+00
         vertex 1.000000e+01 2.200000e+01 1.000000e+00
      endloop
   endfacet
   facet normal 0.000000e+00 -0.000000e+00 1.000000e+00
      outer loop
         vertex 8.000000e+00 2.200000e+01 1.000000e+00
         vertex 8.500000e+00 2.186603e+01 1.000000e+00
         vertex 1.000000e+01 2.200000e+01 1.000000e+00
      endloop
   endfacet
   facet normal -0.000000e+00 0.000000e+00 1.000000e+00
      outer loop
         vertex 1.000000e+01 2.200000e+01 1.000000e+00
         vertex 9.000000e+00 2.100000e+01 1.000000e+00
         vertex 1.000000e+01 -2.200000e+01 1.000000e+00
      endloop
   endfacet
   facet normal -0.000000e+00 0.000000e+00 1.000000e+00
      outer loop
         vertex 9.000000e+00 2.100000e+01 1.000000e+00
         vertex 9.000000e+00 -2.100000e+01 1.000000e+00
         vertex 1.000000e+01 -2.200000e+01 1.000000e+00
      endloop
   endfacet
   facet normal 0.000000e+00 0.000000e+00 1.000000e+00
      outer loop
         vertex 1.000000e+01 -2.200000e+01 1.000000e+00
         vertex 9.000000e+00 -2.100000e+01 1.000000e+00
         vertex 9.707107e+00 -2.270711e+01 1.000000e+00
      endloop
   endfacet
   facet normal -0.000000e+00 0.000000e+00 1.000000e+00
      outer loop
         vertex 9.000000e+00 -2.100000e+01 1.000000e+00
         vertex 8.707107e+00 -2.170711e+01 1.000000e+00
         vertex 9.707107e+00 -2.270711e+01 1.000000e+00
      endloop
   endfacet
   facet normal 0.000000e+00 0.000000e+00 1.000000e+00
      outer loop
         vertex 9.707107e+00 -2.270711e+01 1.000000e+00
         vertex 8.707107e+00 -2.170711e+01 1.000000e+00
         vertex 9.000000e+00 -2.300000e+01 1.000000e+00
      endloop
   endfacet
   facet normal -0.000000e+00 0.000000e+00 1.000000e+00
      outer loop
         vertex 8.707107e+00 -2.170711e+01 1.000000e+00
         vertex 8.000000e+00 -2.200000e+01 1.000000e+00
         vertex 9.000000e+00 -2.300000e+01 1.000000e+00
      endloop
   endfacet
   facet normal 0.000000e+00 0.000000e+00 1.000000e+00
      outer loop
         vertex 9.000000e+00 -2.300000e+01 1.000000e+00
         vertex 8.000000e+00 -2.200000e+01 1.000000e+00
         vertex -9.000000e+00 -2.300000e+01 1.000000e+00
      endloop
   endfacet
   facet normal -0.000000e+00 0.000000e+00 1.000000e+00
      outer loop
         vertex 8.000000e+00 -2.200000e+01 1.000000e+00
         vertex -8.000000e+00 -2.200000e+01 1.000000e+00
         vertex -9.000000e+00 -2.300000e+01 1.000000e+00
      endloop
   endfacet
   facet normal 0.000000e+00 0.000000e+00 1.000000e+00
      outer loop
         vertex -9.000000e+00 -2.300000e+01 1.000000e+00
         vertex -8.000000e+00 -2.200000e+01 1.000000e+00
         vertex -9.500000e+00 -2.286603e+01 1.000000e+00
      endloop
   endfacet
   facet normal 0.000000e+00 0.000000e+00 1.000000e+00
      outer loop
         vertex -8.000000e+00 -2.200000e+01 1.000000e+00
         vertex -8.500000e+00 -2.186603e+01 1.000000e+00
         vertex -9.500000e+00 -2.286603e+01 1.000000e+00
      endloop
   endfacet
   facet normal 0.000000e+00 0.000000e+00 1.000000e+00
      outer loop
         vertex -9.500000e+00 -2.286603e+01 1.000000e+00
         vertex -8.500000e+00 -2.186603e+01 1.000000e+00
         vertex -9.866025e+00 -2.250000e+01 1.000000e+00
      endloop
   endfacet
   facet normal 0.000000e+00 0.000000e+00 1.000000e+00
      outer loop
         vertex -8.500000e+00 -2.186603e+01 1.000000e+00
         vertex -8.866025e+00 -2.150000e+01 1.000000e+00
         vertex -9.866025e+00 -2.250000e+01 1.000000e+00
      endloop
   endfacet
   facet normal 0.000000e+00 0.000000e+00 1.000000e+00
      outer loop
         vertex -9.866025e+00 -2.250000e+01 1.000000e+00
         vertex -8.866025e+00 -2.150000e+01 1.000000e+00
         vertex -1.000000e+01 -2.200000e+01 1.000000e+00
      endloop
   endfacet
   facet normal 0.000000e+00 0.000000e+00 1.000000e+00
      outer loop
         vertex -8.866025e+00 -2.150000e+01 1.000000e+00
         vertex -9.000000e+00 -2.100000e+01 1.000000e+00
         vertex -1.000000e+01 -2.200000e+01 1.000000e+00
      endloop
   endfacet
   facet normal 0.000000e+00 0.000000e+00 1.000000e+00
      outer loop
         vertex -1.000000e+01 -2.200000e+01 1.000000e+00
         vertex -9.000000e+00 -2.100000e+01 1.000000e+00
         vertex -1.000000e+01 2.200000e+01 1.000000e+00
      endloop
   endfacet
   facet normal 0.000000e+00 0.000000e+00 1.000000e+00
      outer loop
         vertex -9.000000e+00 -2.100000e+01 1.000000e+00
         vertex -9.000000e+00 2.100000e+01 1.000000e+00
         vertex -1.000000e+01 2.200000e+01 1.000000e+00
      endloop
   endfacet
   facet normal 0.000000e+00 -0.000000e+00 1.000000e+00
      outer loop
         vertex -1.000000e+01 2.200000e+01 1.000000e+00
         vertex -8.000000e+00 2.200000e+01 1.000000e+00
         vertex 9.866025e+00 2.250000e+01 1.000000e+00
      endloop
   endfacet
   facet normal 0.000000e+00 -0.000000e+00 1.000000e+00
      outer loop
         vertex -8.000000e+00 2.200000e+01 1.000000e+00
         vertex 8.000000e+00 2.200000e+01 1.000000e+00
         vertex 9.866025e+00 2.250000e+01 1.000000e+00
      endloop
   endfacet
   facet normal -0.000000e+00 0.000000e+00 1.000000e+00
      outer loop
         vertex -8.000000e+00 2.200000e+01 1.000000e+00
         vertex -1.000000e+01 2.200000e+01 1.000000e+00
         vertex -8.707107e+00 2.170711e+01 1.000000e+00
      endloop
   endfacet
   facet normal 0.000000e+00 -0.000000e+00 1.000000e+00
      outer loop
         vertex -1.000000e+01 2.200000e+01 1.000000e+00
         vertex -9.000000e+00 2.100000e+01 1.000000e+00
         vertex -8.707107e+00 2.170711e+01 1.000000e+00
      endloop
   endfacet
   facet normal 0.000000e+00 0.000000e+00 1.000000e+00
      outer loop
         vertex 9.000000e+00 2.100000e+01 1.000000e+00
         vertex 1.000000e+01 2.200000e+01 1.000000e+00
         vertex 8.866025e+00 2.150000e+01 1.000000e+00
      endloop
   endfacet
   facet normal -0.000000e+00 0.000000e+00 1.000000e+00
      outer loop
         vertex 1.000000e+01 2.200000e+01 1.000000e+00
         vertex 8.500000e+00 2.186603e+01 1.000000e+00
         vertex 8.866025e+00 2.150000e+01 1.000000e+00
      endloop
   endfacet
   facet normal -9.238796e-01 3.826833e-01 0.000000e+00
      outer loop
         vertex -8.707107e+00 2.170711e+01 1.500000e+00
         vertex -8.707107e+00 2.170711e+01 1.000000e+00
         vertex -9.000000e+00 2.100000e+01 1.000000e+00
      endloop
   endfacet
   facet normal -9.238796e-01 3.826833e-01 0.000000e+00
      outer loop
         vertex -9.000000e+00 2.100000e+01 1.500000e+00
         vertex -8.707107e+00 2.170711e+01 1.500000e+00
         vertex -9.000000e+00 2.100000e+01 1.000000e+00
      endloop
   endfacet
   facet normal -3.826827e-01 9.238798e-01 0.000000e+00
      outer loop
         vertex -8.000000e+00 2.200000e+01 1.500000e+00
         vertex -8.000000e+00 2.200000e+01 1.000000e+00
         vertex -8.707107e+00 2.170711e+01 1.000000e+00
      endloop
   endfacet
   facet normal -3.826827e-01 9.238798e-01 0.000000e+00
      outer loop
         vertex -8.707107e+00 2.170711e+01 1.500000e+00
         vertex -8.000000e+00 2.200000e+01 1.500000e+00
         vertex -8.707107e+00 2.170711e+01 1.000000e+00
      endloop
   endfacet
   facet normal 2.588181e-01 9.659261e-01 -0.000000e+00
      outer loop
         vertex 8.500000e+00 2.186603e+01 1.500000e+00
         vertex 8.500000e+00 2.186603e+01 1.000000e+00
         vertex 8.000000e+00 2.200000e+01 1.000000e+00
      endloop
   endfacet
   facet normal 2.588181e-01 9.659261e-01 0.000000e+00
      outer loop
         vertex 8.000000e+00 2.200000e+01 1.500000e+00
         vertex 8.500000e+00 2.186603e+01 1.500000e+00
         vertex 8.000000e+00 2.200000e+01 1.000000e+00
      endloop
   endfacet
   facet normal 7.071077e-01 7.071059e-01 -0.000000e+00
      outer loop
         vertex 8.866025e+00 2.150000e+01 1.500000e+00
         vertex 8.866025e+00 2.150000e+01 1.000000e+00
         vertex 8.500000e+00 2.186603e+01 1.000000e+00
      endloop
   endfacet
   facet normal 7.071077e-01 7.071059e-01 0.000000e+00
      outer loop
         vertex 8.500000e+00 2.186603e+01 1.500000e+00
         vertex 8.866025e+00 2.150000e+01 1.500000e+00
         vertex 8.500000e+00 2.186603e+01 1.000000e+00
      endloop
   endfacet
   facet normal 9.659256e-01 2.588198e-01 -0.000000e+00
      outer loop
         vertex 9.000000e+00 2.100000e+01 1.500000e+00
         vertex 9.000000e+00 2.100000e+01 1.000000e+00
         vertex 8.866025e+00 2.150000e+01 1.000000e+00
      endloop
   endfacet
   facet normal 9.659256e-01 2.588198e-01 0.000000e+00
      outer loop
         vertex 8.866025e+00 2.150000e+01 1.500000e+00
         vertex 9.000000e+00 2.100000e+01 1.500000e+00
         vertex 8.866025e+00 2.150000e+01 1.000000e+00
      endloop
   endfacet
   facet normal 9.238796e-01 -3.826833e-01 0.000000e+00
      outer loop
         vertex 8.707107e+00 -2.170711e+01 1.500000e+00
         vertex 8.707107e+00 -2.170711e+01 1.000000e+00
         vertex 9.000000e+00 -2.100000e+01 1.000000e+00
      endloop
   endfacet
   facet normal 9.238796e-01 -3.826833e-01 0.000000e+00
      outer loop
         vertex 9.000000e+00 -2.100000e+01 1.500000e+00
         vertex 8.707107e+00 -2.170711e+01 1.500000e+00
         vertex 9.000000e+00 -2.100000e+01 1.000000e+00
      endloop
   endfacet
   facet normal 3.826827e-01 -9.238798e-01 0.000000e+00
      outer loop
         vertex 8.000000e+00 -2.200000e+01 1.500000e+00
         vertex 8.000000e+00 -2.200000e+01 1.000000e+00
         vertex 8.707107e+00 -2.170711e+01 1.000000e+00
      endloop
   endfacet
   facet normal 3.826827e-01 -9.238798e-01 0.000000e+00
      outer loop
         vertex 8.707107e+00 -2.170711e+01 1.500000e+00
         vertex 8.000000e+00 -2.200000e+01 1.500000e+00
         vertex 8.707107e+00 -2.170711e+01 1.000000e+00
      endloop
   endfacet
   facet normal -2.588181e-01 -9.659261e-01 0.000000e+00
      outer loop
         vertex -8.500000e+00 -2.186603e+01 1.500000e+00
         vertex -8.500000e+00 -2.186603e+01 1.000000e+00
         vertex -8.000000e+00 -2.200000e+01 1.000000e+00
      endloop
   endfacet
   facet normal -2.588181e-01 -9.659261e-01 0.000000e+00
      outer loop
         vertex -8.000000e+00 -2.200000e+01 1.500000e+00
         vertex -8.500000e+00 -2.186603e+01 1.500000e+00
         vertex -8.000000e+00 -2.200000e+01 1.000000e+00
      endloop
   endfacet
   facet normal -7.071077e-01 -7.071059e-01 0.000000e+00
      outer loop
         vertex -8.866025e+00 -2.150000e+01 1.500000e+00
         vertex -8.866025e+00 -2.150000e+01 1.000000e+00
         vertex -8.500000e+00 -2.186603e+01 1.000000e+00
      endloop
   endfacet
   facet normal -7.071077e-01 -7.071059e-01 0.000000e+00
      outer loop
         vertex -8.500000e+00 -2.186603e+01 1.500000e+00
         vertex -8.866025e+00 -2.150000e+01 1.500000e+00
         vertex -8.500000e+00 -2.186603e+01 1.000000e+00
      endloop
   endfacet
   facet normal -9.659256e-01 -2.588198e-01 0.000000e+00
      outer loop
         vertex -9.000000e+00 -2.100000e+01 1.500000e+00
         vertex -9.000000e+00 -2.100000e+01 1.000000e+00
         vertex -8.866025e+00 -2.150000e+01 1.000000e+00
      endloop
   endfacet
   facet normal -9.659256e-01 -2.588198e-01 0.000000e+00
      outer loop
         vertex -8.866025e+00 -2.150000e+01 1.500000e+00
         vertex -9.000000e+00 -2.100000e+01 1.500000e+00
         vertex -8.866025e+00 -2.150000e+01 1.000000e+00
      endloop
   endfacet
   facet normal -2.588181e-01 -9.659261e-01 0.000000e+00
      outer loop
         vertex -9.500000e+00 -2.286603e+01 1.000000e+00
         vertex -9.500000e+00 -2.286603e+01 0.000000e+00
         vertex -9.000000e+00 -2.300000e+01 0.000000e+00
      endloop
   endfacet
   facet normal -2.588181e-01 -9.659261e-01 0.000000e+00
      outer loop
         vertex -9.000000e+00 -2.300000e+01 1.000000e+00
         vertex -9.500000e+00 -2.286603e+01 1.000000e+00
         vertex -9.000000e+00 -2.300000e+01 0.000000e+00
      endloop
   endfacet
   facet normal -7.071077e-01 -7.071059e-01 0.000000e+00
      outer loop
         vertex -9.866025e+00 -2.250000e+01 1.000000e+00
         vertex -9.866025e+00 -2.250000e+01 0.000000e+00
         vertex -9.500000e+00 -2.286603e+01 0.000000e+00
      endloop
   endfacet
   facet normal -7.071077e-01 -7.071059e-01 0.000000e+00
      outer loop
         vertex -9.500000e+00 -2.286603e+01 1.000000e+00
         vertex -9.866025e+00 -2.250000e+01 1.000000e+00
         vertex -9.500000e+00 -2.286603e+01 0.000000e+00
      endloop
   endfacet
   facet normal -9.659256e-01 -2.588198e-01 0.000000e+00
      outer loop
         vertex -1.000000e+01 -2.200000e+01 1.000000e+00
         vertex -1.000000e+01 -2.200000e+01 0.000000e+00
         vertex -9.866025e+00 -2.250000e+01 0.000000e+00
      endloop
   endfacet
   facet normal -9.659256e-01 -2.588198e-01 0.000000e+00
      outer loop
         vertex -9.866025e+00 -2.250000e+01 1.000000e+00
         vertex -1.000000e+01 -2.200000e+01 1.000000e+00
         vertex -9.866025e+00 -2.250000e+01 0.000000e+00
      endloop
   endfacet
   facet normal 9.238796e-01 -3.826833e-01 0.000000e+00
      outer loop
         vertex 9.707107e+00 -2.270711e+01 1.000000e+00
         vertex 9.707107e+00 -2.270711e+01 0.000000e+00
         vertex 1.000000e+01 -2.200000e+01 0.000000e+00
      endloop
   endfacet
   facet normal 9.238796e-01 -3.826833e-01 0.000000e+00
      outer loop
         vertex 1.000000e+01 -2.200000e+01 1.000000e+00
         vertex 9.707107e+00 -2.270711e+01 1.000000e+00
         vertex 1.000000e+01 -2.200000e+01 0.000000e+00
      endloop
   endfacet
   facet normal 3.826827e-01 -9.238798e-01 0.000000e+00
      outer loop
         vertex 9.000000e+00 -2.300000e+01 1.000000e+00
         vertex 9.000000e+00 -2.300000e+01 0.000000e+00
         vertex 9.707107e+00 -2.270711e+01 0.000000e+00
      endloop
   endfacet
   facet normal 3.826827e-01 -9.238798e-01 0.000000e+00
      outer loop
         vertex 9.707107e+00 -2.270711e+01 1.000000e+00
         vertex 9.000000e+00 -2.300000e+01 1.000000e+00
         vertex 9.707107e+00 -2.270711e+01 0.000000e+00
      endloop
   endfacet
   facet normal 2.588181e-01 9.659261e-01 -0.000000e+00
      outer loop
         vertex 9.500000e+00 2.286603e+01 1.000000e+00
         vertex 9.500000e+00 2.286603e+01 0.000000e+00
         vertex 9.000000e+00 2.300000e+01 0.000000e+00
      endloop
   endfacet
   facet normal 2.588181e-01 9.659261e-01 0.000000e+00
      outer loop
         vertex 9.000000e+00 2.300000e+01 1.000000e+00
         vertex 9.500000e+00 2.286603e+01 1.000000e+00
         vertex 9.000000e+00 2.300000e+01 0.000000e+00
      endloop
   endfacet
   facet normal 7.071077e-01 7.071059e-01 -0.000000e+00
      outer loop
         vertex 9.866025e+00 2.250000e+01 1.000000e+00
         vertex 9.866025e+00 2.250000e+01 0.000000e+00
         vertex 9.500000e+00 2.286603e+01 0.000000e+00
      endloop
   endfacet
   facet normal 7.071077e-01 7.071059e-01 0.000000e+00
      outer loop
         vertex 9.500000e+00 2.286603e+01 1.000000e+00
         vertex 9.866025e+00 2.250000e+01 1.000000e+00
         vertex 9.500000e+00 2.286603e+01 0.000000e+00
      endloop
   endfacet
   facet normal 9.659256e-01 2.588198e-01 -0.000000e+00
      outer loop
         vertex 1.000000e+01 2.200000e+01 1.000000e+00
         vertex 1.000000e+01 2.200000e+01 0.000000e+00
         vertex 9.866025e+00 2.250000e+01 0.000000e+00
      endloop
   endfacet
   facet normal 9.659256e-01 2.588198e-01 0.000000e+00
      outer loop
         vertex 9.866025e+00 2.250000e+01 1.000000e+00
         vertex 1.000000e+01 2.200000e+01 1.000000e+00
         vertex 9.866025e+00 2.250000e+01 0.000000e+00
      endloop
   endfacet
   facet normal -9.238796e-01 3.826833e-01 0.000000e+00
      outer loop
         vertex -9.707107e+00 2.270711e+01 1.000000e+00
         vertex -9.707107e+00 2.270711e+01 0.000000e+00
         vertex -1.000000e+01 2.200000e+01 0.000000e+00
      endloop
   endfacet
   facet normal -9.238796e-01 3.826833e-01 0.000000e+00
      outer loop
         vertex -1.000000e+01 2.200000e+01 1.000000e+00
         vertex -9.707107e+00 2.270711e+01 1.000000e+00
         vertex -1.000000e+01 2.200000e+01 0.000000e+00
      endloop
   endfacet
   facet normal -3.826827e-01 9.238798e-01 0.000000e+00
      outer loop
         vertex -9.000000e+00 2.300000e+01 1.000000e+00
         vertex -9.000000e+00 2.300000e+01 0.000000e+00
         vertex -9.707107e+00 2.270711e+01 0.000000e+00
      endloop
   endfacet
   facet normal -3.826827e-01 9.238798e-01 0.000000e+00
      outer loop
         vertex -9.707107e+00 2.270711e+01 1.000000e+00
         vertex -9.000000e+00 2.300000e+01 1.000000e+00
         vertex -9.707107e+00 2.270711e+01 0.000000e+00
      endloop
   endfacet
endsolid
